<?xml version="1.0" encoding="UTF-8" standalone="no"?>
<!DOCTYPE svg PUBLIC "-//W3C//DTD SVG 1.1//EN"
 "http://www.w3.org/Graphics/SVG/1.1/DTD/svg11.dtd">
<!-- Generated by graphviz version 12.2.1 (20241206.2353)
 -->
<!-- Pages: 1 -->
<svg width="10081pt" height="260pt"
 viewBox="0.00 0.00 10080.78 260.00" xmlns="http://www.w3.org/2000/svg" xmlns:xlink="http://www.w3.org/1999/xlink">
<g id="graph0" class="graph" transform="scale(1 1) rotate(0) translate(4 256)">
<polygon fill="white" stroke="none" points="-4,4 -4,-256 10076.78,-256 10076.78,4 -4,4"/>
<!-- lean4_economic_foundations.EconomicFoundations -->
<g id="node1" class="node">
<title>lean4_economic_foundations.EconomicFoundations</title>
<ellipse fill="none" stroke="black" cx="1170.43" cy="-162" rx="205.92" ry="18"/>
<text text-anchor="middle" x="1170.43" y="-156.95" font-family="Times,serif" font-size="14.00">lean4_economic_foundations.EconomicFoundations</text>
</g>
<!-- lean4_economic_foundations.EconomicFoundations&#45;&gt;lean4_economic_foundations.EconomicFoundations -->
<g id="edge1" class="edge">
<title>lean4_economic_foundations.EconomicFoundations&#45;&gt;lean4_economic_foundations.EconomicFoundations</title>
<path fill="none" stroke="black" d="M1311.47,-175.5C1357.61,-175.43 1394.35,-170.93 1394.35,-162 1394.35,-153.82 1363.52,-149.36 1322.88,-148.61"/>
<polygon fill="black" stroke="black" points="1323.02,-145.11 1312.98,-148.52 1322.95,-152.11 1323.02,-145.11"/>
</g>
<!-- lean4_economic_foundations.lakefile -->
<g id="node2" class="node">
<title>lean4_economic_foundations.lakefile</title>
<ellipse fill="none" stroke="black" cx="3075.43" cy="-234" rx="150.13" ry="18"/>
<text text-anchor="middle" x="3075.43" y="-228.95" font-family="Times,serif" font-size="14.00">lean4_economic_foundations.lakefile</text>
</g>
<!-- lean4_economic_foundations.deepseek_integration_example -->
<g id="node3" class="node">
<title>lean4_economic_foundations.deepseek_integration_example</title>
<ellipse fill="none" stroke="black" cx="1649.43" cy="-162" rx="237.14" ry="18"/>
<text text-anchor="middle" x="1649.43" y="-156.95" font-family="Times,serif" font-size="14.00">lean4_economic_foundations.deepseek_integration_example</text>
</g>
<!-- graph.react_agent -->
<g id="node10" class="node">
<title>graph.react_agent</title>
<ellipse fill="none" stroke="black" cx="2501.43" cy="-90" rx="76.94" ry="18"/>
<text text-anchor="middle" x="2501.43" y="-84.95" font-family="Times,serif" font-size="14.00">graph.react_agent</text>
</g>
<!-- lean4_economic_foundations.deepseek_integration_example&#45;&gt;graph.react_agent -->
<g id="edge2" class="edge">
<title>lean4_economic_foundations.deepseek_integration_example&#45;&gt;graph.react_agent</title>
<path fill="none" stroke="black" d="M1806.2,-148.12C1986.94,-133.27 2277.24,-109.42 2418.65,-97.8"/>
<polygon fill="black" stroke="black" points="2418.62,-101.32 2428.3,-97.01 2418.05,-94.34 2418.62,-101.32"/>
</g>
<!-- lean4_economic_foundations.main -->
<g id="node4" class="node">
<title>lean4_economic_foundations.main</title>
<ellipse fill="none" stroke="black" cx="141.43" cy="-234" rx="141.43" ry="18"/>
<text text-anchor="middle" x="141.43" y="-228.95" font-family="Times,serif" font-size="14.00">lean4_economic_foundations.main</text>
</g>
<!-- lean4_economic_foundations.main&#45;&gt;lean4_economic_foundations.EconomicFoundations -->
<g id="edge3" class="edge">
<title>lean4_economic_foundations.main&#45;&gt;lean4_economic_foundations.EconomicFoundations</title>
<path fill="none" stroke="black" d="M241.41,-220.93C258.1,-219.13 275.24,-217.4 291.43,-216 528.14,-195.46 801.41,-180.33 979.6,-171.61"/>
<polygon fill="black" stroke="black" points="979.61,-175.11 989.42,-171.13 979.27,-168.12 979.61,-175.11"/>
</g>
<!-- lean4_economic_foundations.EconomicFoundations.DeepSeekExamples -->
<g id="node5" class="node">
<title>lean4_economic_foundations.EconomicFoundations.DeepSeekExamples</title>
<ellipse fill="none" stroke="black" cx="583.43" cy="-234" rx="282.69" ry="18"/>
<text text-anchor="middle" x="583.43" y="-228.95" font-family="Times,serif" font-size="14.00">lean4_economic_foundations.EconomicFoundations.DeepSeekExamples</text>
</g>
<!-- lean4_economic_foundations.EconomicFoundations.DeepSeekExamples&#45;&gt;lean4_economic_foundations.EconomicFoundations -->
<g id="edge4" class="edge">
<title>lean4_economic_foundations.EconomicFoundations.DeepSeekExamples&#45;&gt;lean4_economic_foundations.EconomicFoundations</title>
<path fill="none" stroke="black" d="M712.98,-217.55C810.41,-205.93 943.33,-190.08 1040.78,-178.46"/>
<polygon fill="black" stroke="black" points="1041.17,-181.94 1050.68,-177.28 1040.34,-174.99 1041.17,-181.94"/>
</g>
<!-- lean4_economic_foundations.EconomicFoundations.Basic -->
<g id="node6" class="node">
<title>lean4_economic_foundations.EconomicFoundations.Basic</title>
<ellipse fill="none" stroke="black" cx="4319.43" cy="-234" rx="228.95" ry="18"/>
<text text-anchor="middle" x="4319.43" y="-228.95" font-family="Times,serif" font-size="14.00">lean4_economic_foundations.EconomicFoundations.Basic</text>
</g>
<!-- lean4_economic_foundations.EconomicFoundations.MoneyballTheorems -->
<g id="node7" class="node">
<title>lean4_economic_foundations.EconomicFoundations.MoneyballTheorems</title>
<ellipse fill="none" stroke="black" cx="1170.43" cy="-234" rx="286.27" ry="18"/>
<text text-anchor="middle" x="1170.43" y="-228.95" font-family="Times,serif" font-size="14.00">lean4_economic_foundations.EconomicFoundations.MoneyballTheorems</text>
</g>
<!-- lean4_economic_foundations.EconomicFoundations.MoneyballTheorems&#45;&gt;lean4_economic_foundations.EconomicFoundations -->
<g id="edge5" class="edge">
<title>lean4_economic_foundations.EconomicFoundations.MoneyballTheorems&#45;&gt;lean4_economic_foundations.EconomicFoundations</title>
<path fill="none" stroke="black" d="M1170.43,-215.7C1170.43,-208.41 1170.43,-199.73 1170.43,-191.54"/>
<polygon fill="black" stroke="black" points="1173.93,-191.62 1170.43,-181.62 1166.93,-191.62 1173.93,-191.62"/>
</g>
<!-- lean4_economic_foundations.EconomicFoundations.MarketEquilibrium -->
<g id="node8" class="node">
<title>lean4_economic_foundations.EconomicFoundations.MarketEquilibrium</title>
<ellipse fill="none" stroke="black" cx="1755.43" cy="-234" rx="280.64" ry="18"/>
<text text-anchor="middle" x="1755.43" y="-228.95" font-family="Times,serif" font-size="14.00">lean4_economic_foundations.EconomicFoundations.MarketEquilibrium</text>
</g>
<!-- lean4_economic_foundations.EconomicFoundations.MarketEquilibrium&#45;&gt;lean4_economic_foundations.EconomicFoundations -->
<g id="edge6" class="edge">
<title>lean4_economic_foundations.EconomicFoundations.MarketEquilibrium&#45;&gt;lean4_economic_foundations.EconomicFoundations</title>
<path fill="none" stroke="black" d="M1626.69,-217.59C1529.61,-205.98 1397.02,-190.11 1299.79,-178.48"/>
<polygon fill="black" stroke="black" points="1300.26,-175.01 1289.92,-177.3 1299.43,-181.96 1300.26,-175.01"/>
</g>
<!-- lean4_economic_foundations.EconomicFoundations.UtilityTheory -->
<g id="node9" class="node">
<title>lean4_economic_foundations.EconomicFoundations.UtilityTheory</title>
<ellipse fill="none" stroke="black" cx="2313.43" cy="-234" rx="259.15" ry="18"/>
<text text-anchor="middle" x="2313.43" y="-228.95" font-family="Times,serif" font-size="14.00">lean4_economic_foundations.EconomicFoundations.UtilityTheory</text>
</g>
<!-- lean4_economic_foundations.EconomicFoundations.UtilityTheory&#45;&gt;lean4_economic_foundations.EconomicFoundations -->
<g id="edge7" class="edge">
<title>lean4_economic_foundations.EconomicFoundations.UtilityTheory&#45;&gt;lean4_economic_foundations.EconomicFoundations</title>
<path fill="none" stroke="black" d="M2128.18,-221.07C2100.45,-219.34 2072.19,-217.6 2045.43,-216 1760.16,-198.95 1688.62,-198.4 1403.43,-180 1380.99,-178.55 1357.35,-176.94 1334.08,-175.29"/>
<polygon fill="black" stroke="black" points="1334.42,-171.8 1324.19,-174.59 1333.92,-178.79 1334.42,-171.8"/>
</g>
<!-- graph.specialized_agent_tool -->
<g id="node11" class="node">
<title>graph.specialized_agent_tool</title>
<ellipse fill="none" stroke="black" cx="4685.43" cy="-234" rx="118.91" ry="18"/>
<text text-anchor="middle" x="4685.43" y="-228.95" font-family="Times,serif" font-size="14.00">graph.specialized_agent_tool</text>
</g>
<!-- graph.__init__ -->
<g id="node12" class="node">
<title>graph.__init__</title>
<ellipse fill="none" stroke="black" cx="4887.43" cy="-234" rx="65.17" ry="18"/>
<text text-anchor="middle" x="4887.43" y="-228.95" font-family="Times,serif" font-size="14.00">graph.__init__</text>
</g>
<!-- graph.cort_react_agent -->
<g id="node13" class="node">
<title>graph.cort_react_agent</title>
<ellipse fill="none" stroke="black" cx="5066.43" cy="-234" rx="95.88" ry="18"/>
<text text-anchor="middle" x="5066.43" y="-228.95" font-family="Times,serif" font-size="14.00">graph.cort_react_agent</text>
</g>
<!-- graph.cli -->
<g id="node14" class="node">
<title>graph.cli</title>
<ellipse fill="none" stroke="black" cx="5224.43" cy="-234" rx="43.67" ry="18"/>
<text text-anchor="middle" x="5224.43" y="-228.95" font-family="Times,serif" font-size="14.00">graph.cli</text>
</g>
<!-- graph.a2a_tools -->
<g id="node15" class="node">
<title>graph.a2a_tools</title>
<ellipse fill="none" stroke="black" cx="5355.43" cy="-234" rx="69.78" ry="18"/>
<text text-anchor="middle" x="5355.43" y="-228.95" font-family="Times,serif" font-size="14.00">graph.a2a_tools</text>
</g>
<!-- graph.a2a_mcp_tool -->
<g id="node16" class="node">
<title>graph.a2a_mcp_tool</title>
<ellipse fill="none" stroke="black" cx="5530.43" cy="-234" rx="87.18" ry="18"/>
<text text-anchor="middle" x="5530.43" y="-228.95" font-family="Times,serif" font-size="14.00">graph.a2a_mcp_tool</text>
</g>
<!-- genetic_theorem_prover.python_ffi_bridge -->
<g id="node17" class="node">
<title>genetic_theorem_prover.python_ffi_bridge</title>
<ellipse fill="none" stroke="black" cx="5806.43" cy="-234" rx="170.6" ry="18"/>
<text text-anchor="middle" x="5806.43" y="-228.95" font-family="Times,serif" font-size="14.00">genetic_theorem_prover.python_ffi_bridge</text>
</g>
<!-- genetic_theorem_prover.repository.theorem_repository -->
<g id="node18" class="node">
<title>genetic_theorem_prover.repository.theorem_repository</title>
<ellipse fill="none" stroke="black" cx="3310.43" cy="-90" rx="215.64" ry="18"/>
<text text-anchor="middle" x="3310.43" y="-84.95" font-family="Times,serif" font-size="14.00">genetic_theorem_prover.repository.theorem_repository</text>
</g>
<!-- genetic_theorem_prover.repository.repository_analyzer -->
<g id="node19" class="node">
<title>genetic_theorem_prover.repository.repository_analyzer</title>
<ellipse fill="none" stroke="black" cx="6211.43" cy="-234" rx="216.15" ry="18"/>
<text text-anchor="middle" x="6211.43" y="-228.95" font-family="Times,serif" font-size="14.00">genetic_theorem_prover.repository.repository_analyzer</text>
</g>
<!-- genetic_theorem_prover.core.cort_integration -->
<g id="node20" class="node">
<title>genetic_theorem_prover.core.cort_integration</title>
<ellipse fill="none" stroke="black" cx="3763.43" cy="-90" rx="180.84" ry="18"/>
<text text-anchor="middle" x="3763.43" y="-84.95" font-family="Times,serif" font-size="14.00">genetic_theorem_prover.core.cort_integration</text>
</g>
<!-- genetic_theorem_prover.core.cort_integration&#45;&gt;genetic_theorem_prover.core.cort_integration -->
<g id="edge8" class="edge">
<title>genetic_theorem_prover.core.cort_integration&#45;&gt;genetic_theorem_prover.core.cort_integration</title>
<path fill="none" stroke="black" d="M3887.22,-103.5C3928.87,-103.54 3962.27,-99.04 3962.27,-90 3962.27,-81.81 3934.84,-77.35 3898.69,-76.61"/>
<polygon fill="black" stroke="black" points="3898.76,-73.11 3888.73,-76.51 3898.7,-80.11 3898.76,-73.11"/>
</g>
<!-- genetic_theorem_prover.agents.specialized_agents -->
<g id="node26" class="node">
<title>genetic_theorem_prover.agents.specialized_agents</title>
<ellipse fill="none" stroke="black" cx="3763.43" cy="-18" rx="198.75" ry="18"/>
<text text-anchor="middle" x="3763.43" y="-12.95" font-family="Times,serif" font-size="14.00">genetic_theorem_prover.agents.specialized_agents</text>
</g>
<!-- genetic_theorem_prover.core.cort_integration&#45;&gt;genetic_theorem_prover.agents.specialized_agents -->
<g id="edge9" class="edge">
<title>genetic_theorem_prover.core.cort_integration&#45;&gt;genetic_theorem_prover.agents.specialized_agents</title>
<path fill="none" stroke="black" d="M3757.51,-71.7C3756.76,-64.41 3756.52,-55.73 3756.78,-47.54"/>
<polygon fill="black" stroke="black" points="3760.27,-47.82 3757.44,-37.61 3753.29,-47.36 3760.27,-47.82"/>
</g>
<!-- genetic_theorem_prover.core.theorem_decomposer -->
<g id="node21" class="node">
<title>genetic_theorem_prover.core.theorem_decomposer</title>
<ellipse fill="none" stroke="black" cx="3325.43" cy="-162" rx="202.33" ry="18"/>
<text text-anchor="middle" x="3325.43" y="-156.95" font-family="Times,serif" font-size="14.00">genetic_theorem_prover.core.theorem_decomposer</text>
</g>
<!-- genetic_theorem_prover.core.theorem_decomposer&#45;&gt;graph.react_agent -->
<g id="edge13" class="edge">
<title>genetic_theorem_prover.core.theorem_decomposer&#45;&gt;graph.react_agent</title>
<path fill="none" stroke="black" d="M3182.84,-148.89C3009.84,-134.19 2723.98,-109.91 2583.93,-98.01"/>
<polygon fill="black" stroke="black" points="2584.65,-94.56 2574.39,-97.2 2584.06,-101.53 2584.65,-94.56"/>
</g>
<!-- genetic_theorem_prover.core.theorem_decomposer&#45;&gt;genetic_theorem_prover.repository.theorem_repository -->
<g id="edge11" class="edge">
<title>genetic_theorem_prover.core.theorem_decomposer&#45;&gt;genetic_theorem_prover.repository.theorem_repository</title>
<path fill="none" stroke="black" d="M3321.72,-143.7C3320.14,-136.32 3318.26,-127.52 3316.48,-119.25"/>
<polygon fill="black" stroke="black" points="3319.93,-118.63 3314.41,-109.58 3313.09,-120.1 3319.93,-118.63"/>
</g>
<!-- genetic_theorem_prover.core.theorem_decomposer&#45;&gt;genetic_theorem_prover.core.cort_integration -->
<g id="edge10" class="edge">
<title>genetic_theorem_prover.core.theorem_decomposer&#45;&gt;genetic_theorem_prover.core.cort_integration</title>
<path fill="none" stroke="black" d="M3421.01,-145.72C3491.52,-134.46 3587.37,-119.14 3659.73,-107.57"/>
<polygon fill="black" stroke="black" points="3659.87,-111.1 3669.19,-106.06 3658.76,-104.18 3659.87,-111.1"/>
</g>
<!-- genetic_theorem_prover.core.theorem_decomposer&#45;&gt;genetic_theorem_prover.agents.specialized_agents -->
<g id="edge12" class="edge">
<title>genetic_theorem_prover.core.theorem_decomposer&#45;&gt;genetic_theorem_prover.agents.specialized_agents</title>
<path fill="none" stroke="black" d="M3427.9,-146.07C3463.43,-138.11 3502.56,-126.07 3535.43,-108 3555.81,-96.79 3553.19,-83.46 3573.43,-72 3600.9,-56.45 3633.22,-45.22 3663.34,-37.23"/>
<polygon fill="black" stroke="black" points="3664.03,-40.66 3672.86,-34.8 3662.3,-33.88 3664.03,-40.66"/>
</g>
<!-- genetic_theorem_prover.core.deepseek_prover -->
<g id="node22" class="node">
<title>genetic_theorem_prover.core.deepseek_prover</title>
<ellipse fill="none" stroke="black" cx="2089.43" cy="-162" rx="184.42" ry="18"/>
<text text-anchor="middle" x="2089.43" y="-156.95" font-family="Times,serif" font-size="14.00">genetic_theorem_prover.core.deepseek_prover</text>
</g>
<!-- genetic_theorem_prover.core.deepseek_prover&#45;&gt;graph.react_agent -->
<g id="edge14" class="edge">
<title>genetic_theorem_prover.core.deepseek_prover&#45;&gt;graph.react_agent</title>
<path fill="none" stroke="black" d="M2178.83,-145.81C2253.82,-133.07 2359.55,-115.11 2429.24,-103.26"/>
<polygon fill="black" stroke="black" points="2429.77,-106.72 2439.05,-101.6 2428.6,-99.82 2429.77,-106.72"/>
</g>
<!-- genetic_theorem_prover.core.base_agent -->
<g id="node23" class="node">
<title>genetic_theorem_prover.core.base_agent</title>
<ellipse fill="none" stroke="black" cx="6608.43" cy="-234" rx="162.93" ry="18"/>
<text text-anchor="middle" x="6608.43" y="-228.95" font-family="Times,serif" font-size="14.00">genetic_theorem_prover.core.base_agent</text>
</g>
<!-- genetic_theorem_prover.core.lean_theorem_extractor -->
<g id="node24" class="node">
<title>genetic_theorem_prover.core.lean_theorem_extractor</title>
<ellipse fill="none" stroke="black" cx="2501.43" cy="-162" rx="210.01" ry="18"/>
<text text-anchor="middle" x="2501.43" y="-156.95" font-family="Times,serif" font-size="14.00">genetic_theorem_prover.core.lean_theorem_extractor</text>
</g>
<!-- genetic_theorem_prover.core.lean_theorem_extractor&#45;&gt;graph.react_agent -->
<g id="edge15" class="edge">
<title>genetic_theorem_prover.core.lean_theorem_extractor&#45;&gt;graph.react_agent</title>
<path fill="none" stroke="black" d="M2501.43,-143.7C2501.43,-136.41 2501.43,-127.73 2501.43,-119.54"/>
<polygon fill="black" stroke="black" points="2504.93,-119.62 2501.43,-109.62 2497.93,-119.62 2504.93,-119.62"/>
</g>
<!-- genetic_theorem_prover.core.deepseek_config -->
<g id="node25" class="node">
<title>genetic_theorem_prover.core.deepseek_config</title>
<ellipse fill="none" stroke="black" cx="6973.43" cy="-234" rx="183.91" ry="18"/>
<text text-anchor="middle" x="6973.43" y="-228.95" font-family="Times,serif" font-size="14.00">genetic_theorem_prover.core.deepseek_config</text>
</g>
<!-- genetic_theorem_prover.agents.specialized_agents&#45;&gt;genetic_theorem_prover.core.cort_integration -->
<g id="edge16" class="edge">
<title>genetic_theorem_prover.agents.specialized_agents&#45;&gt;genetic_theorem_prover.core.cort_integration</title>
<path fill="none" stroke="black" d="M3769.32,-36.1C3770.09,-43.37 3770.34,-52.04 3770.08,-60.24"/>
<polygon fill="black" stroke="black" points="3766.59,-59.98 3769.44,-70.19 3773.58,-60.43 3766.59,-59.98"/>
</g>
<!-- genetic_theorem_prover.utils.theorem_exporter -->
<g id="node27" class="node">
<title>genetic_theorem_prover.utils.theorem_exporter</title>
<ellipse fill="none" stroke="black" cx="2917.43" cy="-162" rx="188" ry="18"/>
<text text-anchor="middle" x="2917.43" y="-156.95" font-family="Times,serif" font-size="14.00">genetic_theorem_prover.utils.theorem_exporter</text>
</g>
<!-- genetic_theorem_prover.utils.theorem_exporter&#45;&gt;graph.react_agent -->
<g id="edge17" class="edge">
<title>genetic_theorem_prover.utils.theorem_exporter&#45;&gt;graph.react_agent</title>
<path fill="none" stroke="black" d="M2827.16,-145.81C2751.18,-133.02 2643.93,-114.98 2573.57,-103.14"/>
<polygon fill="black" stroke="black" points="2574.53,-99.75 2564.09,-101.54 2573.37,-106.65 2574.53,-99.75"/>
</g>
<!-- genetic_theorem_prover.evolution.population_manager -->
<g id="node28" class="node">
<title>genetic_theorem_prover.evolution.population_manager</title>
<ellipse fill="none" stroke="black" cx="3763.43" cy="-162" rx="217.18" ry="18"/>
<text text-anchor="middle" x="3763.43" y="-156.95" font-family="Times,serif" font-size="14.00">genetic_theorem_prover.evolution.population_manager</text>
</g>
<!-- genetic_theorem_prover.evolution.population_manager&#45;&gt;genetic_theorem_prover.core.cort_integration -->
<g id="edge18" class="edge">
<title>genetic_theorem_prover.evolution.population_manager&#45;&gt;genetic_theorem_prover.core.cort_integration</title>
<path fill="none" stroke="black" d="M3763.43,-143.7C3763.43,-136.41 3763.43,-127.73 3763.43,-119.54"/>
<polygon fill="black" stroke="black" points="3766.93,-119.62 3763.43,-109.62 3759.93,-119.62 3766.93,-119.62"/>
</g>
<!-- genetic_theorem_prover.evaluation.metrics -->
<g id="node29" class="node">
<title>genetic_theorem_prover.evaluation.metrics</title>
<ellipse fill="none" stroke="black" cx="7347.43" cy="-234" rx="172.14" ry="18"/>
<text text-anchor="middle" x="7347.43" y="-228.95" font-family="Times,serif" font-size="14.00">genetic_theorem_prover.evaluation.metrics</text>
</g>
<!-- genetic_theorem_prover.evaluation.benchmark -->
<g id="node30" class="node">
<title>genetic_theorem_prover.evaluation.benchmark</title>
<ellipse fill="none" stroke="black" cx="3886.43" cy="-234" rx="185.96" ry="18"/>
<text text-anchor="middle" x="3886.43" y="-228.95" font-family="Times,serif" font-size="14.00">genetic_theorem_prover.evaluation.benchmark</text>
</g>
<!-- genetic_theorem_prover.evaluation.benchmark&#45;&gt;genetic_theorem_prover.core.cort_integration -->
<g id="edge19" class="edge">
<title>genetic_theorem_prover.evaluation.benchmark&#45;&gt;genetic_theorem_prover.core.cort_integration</title>
<path fill="none" stroke="black" d="M3944.25,-216.46C3961.84,-208.42 3979.22,-196.74 3989.43,-180 3997.76,-166.34 3999.37,-156.54 3989.43,-144 3975.81,-126.82 3932.96,-114.67 3888.18,-106.38"/>
<polygon fill="black" stroke="black" points="3889.03,-102.98 3878.57,-104.67 3887.8,-109.87 3889.03,-102.98"/>
</g>
<!-- genetic_theorem_prover.evaluation.benchmark&#45;&gt;genetic_theorem_prover.evolution.population_manager -->
<g id="edge20" class="edge">
<title>genetic_theorem_prover.evaluation.benchmark&#45;&gt;genetic_theorem_prover.evolution.population_manager</title>
<path fill="none" stroke="black" d="M3856.34,-215.88C3840.41,-206.81 3820.63,-195.55 3803.42,-185.76"/>
<polygon fill="black" stroke="black" points="3805.37,-182.84 3794.95,-180.94 3801.91,-188.93 3805.37,-182.84"/>
</g>
<!-- genetic_theorem_prover.evaluation.__init__ -->
<g id="node31" class="node">
<title>genetic_theorem_prover.evaluation.__init__</title>
<ellipse fill="none" stroke="black" cx="7712.43" cy="-234" rx="175.21" ry="18"/>
<text text-anchor="middle" x="7712.43" y="-228.95" font-family="Times,serif" font-size="14.00">genetic_theorem_prover.evaluation.__init__</text>
</g>
<!-- genetic_theorem_prover.evaluation.visualization -->
<g id="node32" class="node">
<title>genetic_theorem_prover.evaluation.visualization</title>
<ellipse fill="none" stroke="black" cx="8097.43" cy="-234" rx="191.59" ry="18"/>
<text text-anchor="middle" x="8097.43" y="-228.95" font-family="Times,serif" font-size="14.00">genetic_theorem_prover.evaluation.visualization</text>
</g>
<!-- genetic_theorem_prover.evaluation.examples.analyze_results -->
<g id="node33" class="node">
<title>genetic_theorem_prover.evaluation.examples.analyze_results</title>
<ellipse fill="none" stroke="black" cx="8546.43" cy="-234" rx="239.18" ry="18"/>
<text text-anchor="middle" x="8546.43" y="-228.95" font-family="Times,serif" font-size="14.00">genetic_theorem_prover.evaluation.examples.analyze_results</text>
</g>
<!-- genetic_theorem_prover.evaluation.examples.custom_benchmark -->
<g id="node34" class="node">
<title>genetic_theorem_prover.evaluation.examples.custom_benchmark</title>
<ellipse fill="none" stroke="black" cx="9059.43" cy="-234" rx="255.56" ry="18"/>
<text text-anchor="middle" x="9059.43" y="-228.95" font-family="Times,serif" font-size="14.00">genetic_theorem_prover.evaluation.examples.custom_benchmark</text>
</g>
<!-- genetic_theorem_prover.evaluation.examples.run_benchmarks -->
<g id="node35" class="node">
<title>genetic_theorem_prover.evaluation.examples.run_benchmarks</title>
<ellipse fill="none" stroke="black" cx="9577.43" cy="-234" rx="244.3" ry="18"/>
<text text-anchor="middle" x="9577.43" y="-228.95" font-family="Times,serif" font-size="14.00">genetic_theorem_prover.evaluation.examples.run_benchmarks</text>
</g>
<!-- prover&#45;orchestrator.src.main -->
<g id="node36" class="node">
<title>prover&#45;orchestrator.src.main</title>
<ellipse fill="none" stroke="black" cx="9956.43" cy="-234" rx="116.35" ry="18"/>
<text text-anchor="middle" x="9956.43" y="-228.95" font-family="Times,serif" font-size="14.00">prover&#45;orchestrator.src.main</text>
</g>
</g>
</svg>
