<?xml version="1.0" encoding="UTF-8" standalone="no"?>
<!DOCTYPE svg PUBLIC "-//W3C//DTD SVG 1.1//EN"
 "http://www.w3.org/Graphics/SVG/1.1/DTD/svg11.dtd">
<!-- Generated by graphviz version 12.2.1 (20241206.2353)
 -->
<!-- Pages: 1 -->
<svg width="1109pt" height="260pt"
 viewBox="0.00 0.00 1109.00 260.00" xmlns="http://www.w3.org/2000/svg" xmlns:xlink="http://www.w3.org/1999/xlink">
<g id="graph0" class="graph" transform="scale(1 1) rotate(0) translate(4 256)">
<polygon fill="white" stroke="none" points="-4,4 -4,-256 1105,-256 1105,4 -4,4"/>
<!-- 0 -->
<g id="node1" class="node">
<title>0</title>
<polygon fill="none" stroke="black" points="489.5,-180 389.5,-180 389.5,-144 489.5,-144 489.5,-180"/>
<text text-anchor="middle" x="439.5" y="-156.95" font-family="Times,serif" font-size="14.00">hms&#45;supervisor</text>
</g>
<!-- 1 -->
<g id="node2" class="node">
<title>1</title>
<polygon fill="none" stroke="black" points="374.88,-108 274.12,-108 274.12,-72 374.88,-72 374.88,-108"/>
<text text-anchor="middle" x="324.5" y="-84.95" font-family="Times,serif" font-size="14.00">hms&#45;agent&#45;core</text>
</g>
<!-- 0&#45;&gt;1 -->
<g id="edge1" class="edge">
<title>0&#45;&gt;1</title>
<path fill="none" stroke="black" d="M410.78,-143.52C396.12,-134.6 378.11,-123.63 362.34,-114.03"/>
<polygon fill="black" stroke="black" points="364.51,-111.26 354.15,-109.05 360.87,-117.24 364.51,-111.26"/>
</g>
<!-- 4 -->
<g id="node5" class="node">
<title>4</title>
<polygon fill="none" stroke="black" points="500.25,-108 392.75,-108 392.75,-72 500.25,-72 500.25,-108"/>
<text text-anchor="middle" x="446.5" y="-84.95" font-family="Times,serif" font-size="14.00">hms&#45;self&#45;healing</text>
</g>
<!-- 0&#45;&gt;4 -->
<g id="edge2" class="edge">
<title>0&#45;&gt;4</title>
<path fill="none" stroke="black" d="M441.23,-143.7C441.96,-136.41 442.83,-127.73 443.65,-119.54"/>
<polygon fill="black" stroke="black" points="447.13,-119.91 444.64,-109.61 440.16,-119.21 447.13,-119.91"/>
</g>
<!-- 5 -->
<g id="node6" class="node">
<title>5</title>
<polygon fill="none" stroke="black" points="256.5,-108 150.5,-108 150.5,-72 256.5,-72 256.5,-108"/>
<text text-anchor="middle" x="203.5" y="-84.95" font-family="Times,serif" font-size="14.00">hms&#45;verification</text>
</g>
<!-- 0&#45;&gt;5 -->
<g id="edge3" class="edge">
<title>0&#45;&gt;5</title>
<path fill="none" stroke="black" d="M389.16,-146.07C353.68,-135.54 305.86,-121.36 267.64,-110.03"/>
<polygon fill="black" stroke="black" points="268.66,-106.68 258.08,-107.19 266.67,-113.39 268.66,-106.68"/>
</g>
<!-- 2 -->
<g id="node3" class="node">
<title>2</title>
<polygon fill="none" stroke="black" points="268.12,-36 138.88,-36 138.88,0 268.12,0 268.12,-36"/>
<text text-anchor="middle" x="203.5" y="-12.95" font-family="Times,serif" font-size="14.00">hms&#45;communication</text>
</g>
<!-- 1&#45;&gt;2 -->
<g id="edge4" class="edge">
<title>1&#45;&gt;2</title>
<path fill="none" stroke="black" d="M294.28,-71.52C278.71,-62.51 259.55,-51.42 242.84,-41.76"/>
<polygon fill="black" stroke="black" points="245.05,-39 234.65,-37.02 241.55,-45.06 245.05,-39"/>
</g>
<!-- 3 -->
<g id="node4" class="node">
<title>3</title>
<polygon fill="none" stroke="black" points="383,-36 286,-36 286,0 383,0 383,-36"/>
<text text-anchor="middle" x="334.5" y="-12.95" font-family="Times,serif" font-size="14.00">hms&#45;data&#45;store</text>
</g>
<!-- 1&#45;&gt;3 -->
<g id="edge5" class="edge">
<title>1&#45;&gt;3</title>
<path fill="none" stroke="black" d="M326.97,-71.7C328.03,-64.32 329.28,-55.52 330.46,-47.25"/>
<polygon fill="black" stroke="black" points="333.89,-48 331.84,-37.6 326.96,-47.01 333.89,-48"/>
</g>
<!-- 5&#45;&gt;2 -->
<g id="edge6" class="edge">
<title>5&#45;&gt;2</title>
<path fill="none" stroke="black" d="M203.5,-71.7C203.5,-64.41 203.5,-55.73 203.5,-47.54"/>
<polygon fill="black" stroke="black" points="207,-47.62 203.5,-37.62 200,-47.62 207,-47.62"/>
</g>
<!-- 6 -->
<g id="node7" class="node">
<title>6</title>
<polygon fill="none" stroke="black" points="463.5,-252 357.5,-252 357.5,-216 463.5,-216 463.5,-252"/>
<text text-anchor="middle" x="410.5" y="-228.95" font-family="Times,serif" font-size="14.00">hms&#45;agent&#45;skills</text>
</g>
<!-- 7 -->
<g id="node8" class="node">
<title>7</title>
<polygon fill="none" stroke="black" points="605.12,-252 481.88,-252 481.88,-216 605.12,-216 605.12,-252"/>
<text text-anchor="middle" x="543.5" y="-228.95" font-family="Times,serif" font-size="14.00">hms&#45;genetic&#45;engine</text>
</g>
<!-- 8 -->
<g id="node9" class="node">
<title>8</title>
<polygon fill="none" stroke="black" points="741.5,-252 623.5,-252 623.5,-216 741.5,-216 741.5,-252"/>
<text text-anchor="middle" x="682.5" y="-228.95" font-family="Times,serif" font-size="14.00">hms&#45;policy&#45;engine</text>
</g>
<!-- 9 -->
<g id="node10" class="node">
<title>9</title>
<polygon fill="none" stroke="black" points="110.75,-108 54.25,-108 54.25,-72 110.75,-72 110.75,-108"/>
<text text-anchor="middle" x="82.5" y="-84.95" font-family="Times,serif" font-size="14.00">hms&#45;ffi</text>
</g>
<!-- 9&#45;&gt;2 -->
<g id="edge7" class="edge">
<title>9&#45;&gt;2</title>
<path fill="none" stroke="black" d="M111.18,-72.41C126.83,-63.35 146.46,-52 163.59,-42.09"/>
<polygon fill="black" stroke="black" points="165.13,-45.24 172.03,-37.2 161.62,-39.18 165.13,-45.24"/>
</g>
<!-- 10 -->
<g id="node11" class="node">
<title>10</title>
<polygon fill="none" stroke="black" points="121,-36 0,-36 0,0 121,0 121,-36"/>
<text text-anchor="middle" x="60.5" y="-12.95" font-family="Times,serif" font-size="14.00">trade_balance_core</text>
</g>
<!-- 9&#45;&gt;10 -->
<g id="edge8" class="edge">
<title>9&#45;&gt;10</title>
<path fill="none" stroke="black" d="M77.06,-71.7C74.72,-64.24 71.92,-55.32 69.29,-46.97"/>
<polygon fill="black" stroke="black" points="72.67,-46.04 66.33,-37.55 65.99,-48.14 72.67,-46.04"/>
</g>
<!-- 11 -->
<g id="node12" class="node">
<title>11</title>
<polygon fill="none" stroke="black" points="829.12,-252 759.88,-252 759.88,-216 829.12,-216 829.12,-252"/>
<text text-anchor="middle" x="794.5" y="-228.95" font-family="Times,serif" font-size="14.00">mac_core</text>
</g>
<!-- 12 -->
<g id="node13" class="node">
<title>12</title>
<polygon fill="none" stroke="black" points="932,-252 847,-252 847,-216 932,-216 932,-252"/>
<text text-anchor="middle" x="889.5" y="-228.95" font-family="Times,serif" font-size="14.00">econ_formal</text>
</g>
<!-- 13 -->
<g id="node14" class="node">
<title>13</title>
<polygon fill="none" stroke="black" points="1101,-252 950,-252 950,-216 1101,-216 1101,-252"/>
<text text-anchor="middle" x="1025.5" y="-228.95" font-family="Times,serif" font-size="14.00">genetic_prover_interface</text>
</g>
<!-- 14 -->
<g id="node15" class="node">
<title>14</title>
<polygon fill="none" stroke="black" points="237,-180 170,-180 170,-144 237,-144 237,-180"/>
<text text-anchor="middle" x="203.5" y="-156.95" font-family="Times,serif" font-size="14.00">hms&#45;mac</text>
</g>
<!-- 14&#45;&gt;1 -->
<g id="edge9" class="edge">
<title>14&#45;&gt;1</title>
<path fill="none" stroke="black" d="M233.72,-143.52C249.29,-134.51 268.45,-123.42 285.16,-113.76"/>
<polygon fill="black" stroke="black" points="286.45,-117.06 293.35,-109.02 282.95,-111 286.45,-117.06"/>
</g>
<!-- 14&#45;&gt;5 -->
<g id="edge10" class="edge">
<title>14&#45;&gt;5</title>
<path fill="none" stroke="black" d="M203.5,-143.7C203.5,-136.41 203.5,-127.73 203.5,-119.54"/>
<polygon fill="black" stroke="black" points="207,-119.62 203.5,-109.62 200,-119.62 207,-119.62"/>
</g>
<!-- 15 -->
<g id="node16" class="node">
<title>15</title>
<polygon fill="none" stroke="black" points="371.75,-180 255.25,-180 255.25,-144 371.75,-144 371.75,-180"/>
<text text-anchor="middle" x="313.5" y="-156.95" font-family="Times,serif" font-size="14.00">hms&#45;trade&#45;balance</text>
</g>
<!-- 15&#45;&gt;1 -->
<g id="edge11" class="edge">
<title>15&#45;&gt;1</title>
<path fill="none" stroke="black" d="M316.22,-143.7C317.38,-136.32 318.76,-127.52 320.06,-119.25"/>
<polygon fill="black" stroke="black" points="323.48,-120.02 321.58,-109.6 316.57,-118.93 323.48,-120.02"/>
</g>
<!-- 15&#45;&gt;5 -->
<g id="edge12" class="edge">
<title>15&#45;&gt;5</title>
<path fill="none" stroke="black" d="M286.03,-143.52C272.14,-134.68 255.1,-123.84 240.12,-114.3"/>
<polygon fill="black" stroke="black" points="242.22,-111.49 231.9,-109.07 238.46,-117.39 242.22,-111.49"/>
</g>
<!-- 16 -->
<g id="node17" class="node">
<title>16</title>
<polygon fill="none" stroke="black" points="339.25,-252 177.75,-252 177.75,-216 339.25,-216 339.25,-252"/>
<text text-anchor="middle" x="258.5" y="-228.95" font-family="Times,serif" font-size="14.00">hms&#45;mac&#45;trade&#45;integration</text>
</g>
<!-- 16&#45;&gt;14 -->
<g id="edge13" class="edge">
<title>16&#45;&gt;14</title>
<path fill="none" stroke="black" d="M244.9,-215.7C238.58,-207.64 230.92,-197.89 223.91,-188.98"/>
<polygon fill="black" stroke="black" points="226.8,-187 217.87,-181.29 221.3,-191.32 226.8,-187"/>
</g>
<!-- 16&#45;&gt;15 -->
<g id="edge14" class="edge">
<title>16&#45;&gt;15</title>
<path fill="none" stroke="black" d="M272.1,-215.7C278.42,-207.64 286.08,-197.89 293.09,-188.98"/>
<polygon fill="black" stroke="black" points="295.7,-191.32 299.13,-181.29 290.2,-187 295.7,-191.32"/>
</g>
</g>
</svg>
